{"title":"The.Terror.Beneath.2011.HDTV.Rip.XviD-AT","uid":7287921,"size":1416710398,"categoryP":"video","categoryS":"movies","magnet":"?xt=urn:btih:6df72dac9f3548be69862da9294a5ef3d9e4b332&amp;dn=The.Terror.Beneath.2011.HDTV.Rip.XviD-AT&amp;tr=udp%3A%2F%2Ftracker.openbittorrent.com%3A80&amp;tr=udp%3A%2F%2Fopen.demonii.com%3A1337&amp;tr=udp%3A%2F%2Ftracker.coppersurfer.tk%3A6969&amp;tr=udp%3A%2F%2Fexodus.desync.com%3A6969","seeders":0,"leechers":2,"uploader":"crazy-torrent","files":2,"time":1337639112,"description":" &lt;a href=&quot; http://www.scenespeeds.com/&quot; rel=&quot;nofollow&quot; target=&quot;_NEW&quot;&gt; http://www.scenespeeds.com/&lt;/a&gt;\t\n\n\nFormat: AVI\nFormat/Info: Audio Video Interleave\nFile size: 1.32 GiB\nDuration: 1h 29mn\nOverall bit rate: 2 107 Kbps\nWriting library: VirtualDub build 32661/release\n\nVideo\nID: 0\nFormat: MPEG-4 Visual\nFormat profile: Advanced Simple@L5\nFormat settings, BVOP: Yes\nFormat settings, QPel: No\nFormat settings, GMC: No warppoints\nFormat settings, Matrix: Default (MPEG)\nCodec ID: XVID\nCodec ID/Hint: XviD\nDuration: 1h 29mn\nBit rate: 1 988 Kbps\nWidth: 720 pixels\nHeight: 400 pixels\nDisplay aspect ratio: 16:9\nFrame rate: 24.234 fps\nOriginal frame rate: 24.000 fps\nColor space: YUV\nChroma subsampling: 4:2:0\nBit depth: 8 bits\nScan type: Progressive\nBits/(Pixel*Frame): 0.285\nStream size: 1.24 GiB (94%)\nWriting library: XviD 1.2.1 (UTC 2008-12-04)\n\nAudio\nID: 1\nFormat: MPEG Audio\nCodec ID: 55\nCodec ID/Hint: MP3\nDuration: 1h 26mn\nBit rate: 112 Kbps\nChannel(s): 2 channels\nSampling rate: 48.0 KHz\nStream size: 68.2 MiB (5%)\nAlignment: Split accross interleaves\nInterleave, duration: 25 ms (0.61 video frame)\nInterleave, preload duration: 3520 ms\n\n\n &lt;a href=&quot; http://www.scenespeeds.com/&quot; rel=&quot;nofollow&quot; target=&quot;_NEW&quot;&gt; http://www.scenespeeds.com/&lt;/a&gt;\t","torrent":{"xt":"urn:btih:6df72dac9f3548be69862da9294a5ef3d9e4b332","amp;dn":"The.Terror.Beneath.2011.HDTV.Rip.XviD-AT","amp;tr":["udp%3A%2F%2Ftracker.openbittorrent.com%3A80","udp%3A%2F%2Fopen.demonii.com%3A1337","udp%3A%2F%2Ftracker.coppersurfer.tk%3A6969","udp%3A%2F%2Fexodus.desync.com%3A6969"],"infoHash":"6df72dac9f3548be69862da9294a5ef3d9e4b332","infoHashBuffer":{"type":"Buffer","data":[109,247,45,172,159,53,72,190,105,134,45,169,41,74,94,243,217,228,179,50]},"announce":[],"urlList":[]}}